# xmcd
#
# Track frame offsets: 
#        150
#        7179
#        17064
#        25221
#        36784
#        44665
#        55930
#        66586
#        76234
#        86813
#        95878
#        107008
#        116264
#        125541
#        135873
#        145933
#        154677
#        164257
#        175175
#        183754
#
# Disc length: 2584 seconds
#
# Revision: 3
# Processed by: cddbd v1.5.2PL0 Copyright (c) Steve Scherf et al.
# Submitted via: ExactAudioCopy v1.1
#
DISCID=0c0a1614
DTITLE=Various Artist - Rhythm and Blues Goes Rock 'n' Roll - Vol 2 - D
DTITLE=isc 3
DYEAR=2002
DGENRE=R&B
TTITLE0=Dave Barton - Bookie's Blues (mono)
TTITLE1=Mickey Cooper - Country Girl (mono)
TTITLE2=George Jenkins - Shufflin' Boogie (mono)
TTITLE3=Max Bailey - Leave It Alone (mono)
TTITLE4=The Shrewsbury Kid (Tommy Ridgley) - Booted (mono)
TTITLE5=Rufus Thomas - Crazy About You Baby (mono)
TTITLE6=Austin Wright - Keep Me On Your Mind (mono)
TTITLE7=McKinley Mitchell - Rock, Everybody, Rock (mono)
TTITLE8=Rich McQueen - Who's That Under My Bed (mono)
TTITLE9=Joe McCoy - Hey Loretta (mono)
TTITLE10=John Bullard - Mary Lou (mono)
TTITLE11=Frank Linkenberg - Ball Of Fire (mono)
TTITLE12=Calvin Johnson - Unsatisfied (mono)
TTITLE13=Jesse Allen - Love Me Baby (mono)
TTITLE14=Johnny Green - Little Eva (mono)
TTITLE15=Artie Wilson - Tarzan (mono)
TTITLE16=Georgia Lane - Get It (mono)
TTITLE17=Lorenzo Holden - Whipped Cream (mono)
TTITLE18=Bill Heyman - I Want My Baby (mono)
TTITLE19=Joe McCoy - Too Much Going On (mono)
EXTD=YEAR: 2002
EXTT0=
EXTT1=
EXTT2=
EXTT3=
EXTT4=
EXTT5=
EXTT6=
EXTT7=
EXTT8=
EXTT9=
EXTT10=
EXTT11=
EXTT12=
EXTT13=
EXTT14=
EXTT15=
EXTT16=
EXTT17=
EXTT18=
EXTT19=
PLAYORDER=
